<svg xmlns="http://www.w3.org/2000/svg" width="1643" height="246" viewBox="0 0 1643 246" fill="none"><path fill-rule="evenodd" clip-rule="evenodd" d="M283.351 195.166L164.83 0H122.63L215.622 155.141C215.925 155.646 216.089 156.223 216.096 156.812C216.104 157.401 215.955 157.982 215.665 158.495C215.375 159.008 214.955 159.435 214.446 159.733C213.938 160.03 213.359 160.188 212.77 160.189H122.127L101.607 195.166H283.351Z" fill="#284B63"></path><path fill-rule="evenodd" clip-rule="evenodd" d="M283.843 201.823H95.794C95.2139 201.823 94.6439 201.671 94.1407 201.382C93.6375 201.094 93.2185 200.678 92.9254 200.178C92.6322 199.677 92.4751 199.109 92.4696 198.529C92.4641 197.949 92.6104 197.377 92.894 196.871V196.858L135.343 121.416L116.863 91.726L105.963 110.526L27.943 245.12H261.909L283.843 201.823Z" fill="white"></path><path fill-rule="evenodd" clip-rule="evenodd" d="M-0.000976562 198.609L22.322 241.535L113.869 83.586C114.156 83.0925 114.565 82.6809 115.057 82.3905C115.548 82.1 116.106 81.9405 116.677 81.927C117.252 81.8913 117.825 82.0158 118.333 82.2864C118.841 82.557 119.264 82.9633 119.555 83.46L119.577 83.499L119.634 83.599L164.473 153.53H206.884L116.755 3.15302L-0.000976562 198.609Z" fill="#353535"></path><path d="M349.162 178.957V35.957H505.962V61.957H381.162V93.557H494.362V119.557H381.162V152.957H505.962V178.957H349.162ZM524.873 178.957V75.957H614.673C626.406 75.957 634.94 78.8903 640.273 84.757C645.74 90.4903 648.473 98.0903 648.473 107.557V178.957H619.473V110.957C619.473 102.957 615.473 98.957 607.473 98.957H553.873V178.957H524.873ZM723.004 178.957C711.404 178.957 702.871 176.09 697.404 170.357C691.938 164.49 689.204 156.824 689.204 147.357V98.957H659.404V75.957H689.204V44.357H718.204V75.957H761.004V98.957H718.204V143.757C718.204 151.89 722.204 155.957 730.204 155.957H766.604V178.957H723.004ZM834.314 179.957C816.447 179.957 802.514 175.557 792.514 166.757C782.514 157.824 777.514 144.757 777.514 127.557C777.514 110.224 782.514 97.157 792.514 88.357C802.514 79.4237 816.447 74.957 834.314 74.957H884.314C896.047 74.957 904.98 77.757 911.114 83.357C917.38 88.8237 920.514 96.6903 920.514 106.957C920.514 127.89 908.447 138.357 884.314 138.357H808.714C811.514 150.757 820.047 156.957 834.314 156.957H915.314V179.957H834.314ZM834.314 97.957C820.58 97.957 812.114 103.757 808.914 115.357H882.914C885.58 115.357 887.647 114.557 889.114 112.957C890.714 111.357 891.514 109.157 891.514 106.357C891.514 100.757 888.647 97.957 882.914 97.957H834.314ZM938.545 178.957V35.957H967.545V178.957H938.545ZM989.521 178.957V35.957H1018.52V178.957H989.521ZM1040.5 178.957V75.957H1069.5V178.957H1040.5ZM1040.3 58.957V36.357H1069.7V58.957H1040.3ZM1115.87 223.957V200.957H1176.27C1184.27 200.957 1188.27 196.89 1188.27 188.757V178.957H1144.27C1126.41 178.957 1112.47 174.557 1102.47 165.757C1092.47 156.957 1087.47 144.224 1087.47 127.557C1087.47 110.757 1092.47 97.957 1102.47 89.157C1112.47 80.357 1126.41 75.957 1144.27 75.957H1217.27V192.357C1217.27 201.824 1214.54 209.424 1209.07 215.157C1203.61 221.024 1195.07 223.957 1183.47 223.957H1115.87ZM1144.27 155.957H1188.27V98.957H1144.27C1135.61 98.957 1128.94 101.357 1124.27 106.157C1119.74 110.824 1117.47 117.957 1117.47 127.557C1117.47 137.024 1119.74 144.157 1124.27 148.957C1128.94 153.624 1135.61 155.957 1144.27 155.957ZM1292.13 179.957C1274.26 179.957 1260.33 175.557 1250.33 166.757C1240.33 157.824 1235.33 144.757 1235.33 127.557C1235.33 110.224 1240.33 97.157 1250.33 88.357C1260.33 79.4237 1274.26 74.957 1292.13 74.957H1342.13C1353.86 74.957 1362.79 77.757 1368.93 83.357C1375.19 88.8237 1378.33 96.6903 1378.33 106.957C1378.33 127.89 1366.26 138.357 1342.13 138.357H1266.53C1269.33 150.757 1277.86 156.957 1292.13 156.957H1373.13V179.957H1292.13ZM1292.13 97.957C1278.39 97.957 1269.93 103.757 1266.73 115.357H1340.73C1343.39 115.357 1345.46 114.557 1346.93 112.957C1348.53 111.357 1349.33 109.157 1349.33 106.357C1349.33 100.757 1346.46 97.957 1340.73 97.957H1292.13ZM1396.36 178.957V75.957H1486.16C1497.89 75.957 1506.42 78.8903 1511.76 84.757C1517.22 90.4903 1519.96 98.0903 1519.96 107.557V178.957H1490.96V110.957C1490.96 102.957 1486.96 98.957 1478.96 98.957H1425.36V178.957H1396.36ZM1594.49 178.957C1582.89 178.957 1574.36 176.09 1568.89 170.357C1563.42 164.49 1560.69 156.824 1560.69 147.357V98.957H1530.89V75.957H1560.69V44.357H1589.69V75.957H1632.49V98.957H1589.69V143.757C1589.69 151.89 1593.69 155.957 1601.69 155.957H1638.09V178.957H1594.49Z" fill="white"></path></svg>